<svg id="Ebene_1" data-name="Ebene 1" xmlns="http://www.w3.org/2000/svg" viewBox="0 0 300 300"><defs><style>.cls-1{fill:#333;}.cls-2{fill:#ff8c6a;}</style></defs><rect class="cls-1" x="-0.22" y="0.78" width="300" height="300"/><path class="cls-2" d="M6,191.33V107.66H53.92q15.84.14,23.57,5.64T85.23,130a18.52,18.52,0,0,1-4.57,12.68q-4.56,5.19-14.32,6.59v.13q10.91,1.14,16,6.46a18.71,18.71,0,0,1,5.07,13.44q0,11-7.41,16.54t-22.76,5.52Z"/><path class="cls-2" d="M95.24,191.33V107.66h47.92q15.84.14,23.57,5.64T174.47,130a18.52,18.52,0,0,1-4.57,12.68q-4.56,5.19-14.32,6.59v.13q10.9,1.14,16,6.46a18.71,18.71,0,0,1,5.07,13.44q0,11-7.41,16.54t-22.76,5.52Z"/><path class="cls-2" d="M258.51,127.94l-23.33,34.48-12.8-.89-13.06,29.8H176.75l24-35.24,11.78,1.64,13.57-29.79Zm-48.42,0,13.18,29.79,11.41-1.64L259,191.33h-33l-13.44-29.8-11.66.89-23.71-34.48Z"/><path class="cls-2" d="M278.41,165.21q7.47,0,11.53,3.55c2.71,2.37,4.06,5.7,4.06,10s-1.35,7.64-4.06,10-6.55,3.55-11.53,3.55-8.73-1.18-11.47-3.55-4.12-5.71-4.12-10,1.37-7.65,4.12-10S273.51,165.21,278.41,165.21Z"/></svg>